<svg xmlns="http://www.w3.org/2000/svg" xmlns:svg="http://www.w3.org/2000/svg" id="svg316" width="600" height="300" version="1.1" viewBox="0 0 158.75 79.375"><g id="layer1"><rect style="fill:#f60;stroke-width:.617435;stroke-linejoin:bevel" id="rect684" width="39.688" height="16.14" x="34.396" y="0" ry="8.07"/><rect style="fill:#f60;stroke-width:.436592;stroke-linejoin:bevel" id="rect684-3" width="19.844" height="16.14" x="34.396" y="0" ry="0"/><rect style="fill:#f60;stroke-width:.318841;stroke-linejoin:bevel" id="rect684-3-7" width="21.167" height="8.07" x="52.917" y="8.07" ry="0"/><rect style="fill:#000;stroke-width:.64135;stroke-linejoin:bevel" id="rect781" width="10.591" height="8.171" x="62.202" y="3.775"/><path id="rect835" style="stroke-width:.64135;stroke-linejoin:bevel" d="m 72.768483,3.6661291 0.146115,0.1176705 0.361064,0.6818869 0.315703,0.7306439 0.408413,1.3262298 0.100483,1.0825123 v 4.3300045 l -1.530995,-0.05202 z"/><path id="rect897" style="fill:#f60;stroke-width:.776685;stroke-linejoin:bevel" d="M 34.395833,15.875 H 119.0625 c 25.91305,0.179743 39.52433,12.160413 39.6875,37.041667 -0.0391,18.020131 -13.90268,26.39701 -39.6875,26.458333 H 21.166667 C 12.15866,75.654569 0.23564896,66.364719 0,52.916667 -0.213116,32.071833 13.549201,16.212021 34.395833,15.875 Z"/><rect style="fill:#f60;stroke:#000;stroke-width:.656552;stroke-linejoin:bevel" id="rect920" width="25.802" height="39.031" x="79.703" y="26.787"/></g></svg>