<svg xmlns="http://www.w3.org/2000/svg" xmlns:svg="http://www.w3.org/2000/svg" id="svg5" width="44" height="294" version="1.1" viewBox="0 0 11.642 77.787"><g id="layer1"><rect style="fill:maroon;stroke:none;stroke-width:.626668;stroke-linejoin:bevel" id="rect254" width="11.642" height="59.531" x="0" y="6.615"/><path id="path525" style="fill:maroon;stroke-width:.64135;stroke-linejoin:bevel" d="M -4.7851904,65.554016 H 9.8605181 C 9.449406,70.949069 9.698037,78.314911 2.5376639,78.237572 -4.7831109,78.260139 -4.2921054,70.790986 -4.7851904,65.554016 Z" transform="matrix(0.79488584,0,0,0.93871544,3.8036801,4.344681)"/><path id="path534" style="fill:maroon;stroke-width:.406907;stroke-linejoin:bevel" d="M 11.641667,6.8790996 H 8.343972e-8 C 1.4654936,3.0334641 2.7253996,-0.01183602 5.8208332,-3.2696786e-5 8.7405212,-0.01035697 9.413018,2.8188329 11.641667,6.8790996 Z"/><rect style="fill:#fff;stroke:none;stroke-width:.83393;stroke-linejoin:bevel" id="rect610" width="10.054" height="10.054" x=".794" y="60.854"/><circle style="fill:#ff0;stroke:none;stroke-width:.646932;stroke-linejoin:bevel" id="path716" cx="5.821" cy="67.601" r="1.455"/><rect style="fill:#fff;stroke:none;stroke-width:.747087;stroke-linejoin:bevel" id="rect831" width="11.642" height="2.646" x="0" y="60.854"/><rect style="fill:#a00;stroke:none;stroke-width:.485595;stroke-linejoin:bevel" id="rect843" width="9.525" height="5.227" x="1.058" y="36.499"/><rect style="fill:#a00;stroke:none;stroke-width:.485595;stroke-linejoin:bevel" id="rect843-3" width="9.525" height="5.227" x="1.058" y="30.575"/><rect style="fill:#a00;stroke:none;stroke-width:.485595;stroke-linejoin:bevel" id="rect843-6" width="9.525" height="5.227" x="1.058" y="24.651"/><rect style="fill:#a00;stroke:none;stroke-width:.485595;stroke-linejoin:bevel" id="rect843-5" width="9.525" height="5.227" x="1.058" y="54.569"/><rect style="fill:#a00;stroke:none;stroke-width:.485595;stroke-linejoin:bevel" id="rect843-3-6" width="9.525" height="5.227" x="1.058" y="48.645"/><rect style="fill:#a00;stroke:none;stroke-width:.485595;stroke-linejoin:bevel" id="rect843-6-2" width="9.525" height="5.227" x="1.058" y="42.721"/><rect style="fill:#a00;stroke:none;stroke-width:.485595;stroke-linejoin:bevel" id="rect843-3-7" width="9.525" height="5.227" x="1.058" y="18.727"/><rect style="fill:#a00;stroke:none;stroke-width:.485595;stroke-linejoin:bevel" id="rect843-6-5" width="9.525" height="5.227" x="1.058" y="12.803"/><rect style="fill:#a00;stroke:none;stroke-width:.485595;stroke-linejoin:bevel" id="rect843-3-7-3" width="9.525" height="5.227" x="1.058" y="6.879"/></g></svg>